<?xml version="1.0" encoding="UTF-8"?>
<svg width="78px" height="162px" viewBox="0 0 78 162" version="1.1" xmlns="http://www.w3.org/2000/svg" xmlns:xlink="http://www.w3.org/1999/xlink">
    <!-- Generator: Sketch 41 (35326) - http://www.bohemiancoding.com/sketch -->
    <title>Page 1</title>
    <desc>Created with Sketch.</desc>
    <defs></defs>
    <g id="Page-1" stroke="none" stroke-width="1" fill="none" fill-rule="evenodd">
        <g transform="translate(1.000000, 1.000000)" id="Combined-Shape" stroke="#333333" fill="#FFFFFF">
            <path d="M0,-1.42108547e-14 L76,-1.42108547e-14 L76,160 L0,160 L0,-1.42108547e-14 Z M47.6940789,32.7138158 C56.1276316,32.7138158 59.55,39.6611842 60.8230263,43.4921053 L71.1848684,77.5539474 C73.2513158,84.8782895 63.9296053,87.9157895 61.7092105,80.7769737 L52.3875,49.5059211 L49.6736842,49.5059211 L65.8342105,105.124342 L50.9467105,105.124342 L50.9467105,148.490132 C50.9467105,155.883553 39.8210526,155.846053 39.8210526,148.490132 L39.8210526,104.846053 L35.2875,104.846053 L35.2953947,148.436842 C35.2953947,155.891447 24.1243421,155.891447 24.1243421,148.436842 L24.1243421,105.132237 L9.19144737,105.132237 L25.2276316,49.5059211 L22.7210526,49.5059211 L13.4013158,80.8835526 C11.1809211,87.7223684 1.78223684,84.9157895 3.93355263,77.5855263 L14.2717105,43.4921053 C15.3809211,39.6059211 18.7815789,32.7138158 27.2940789,32.7138158 L47.6940789,32.7138158 Z M49.6361842,18.0809211 C49.6361842,24.7578947 44.2243421,30.1697368 37.5552632,30.1697368 C30.8782895,30.1697368 25.4664474,24.7578947 25.4664474,18.0809211 C25.4664474,11.4118421 30.8782895,6 37.5552632,6 C44.2243421,6 49.6361842,11.4118421 49.6361842,18.0809211 Z"></path>
        </g>
    </g>
</svg>