<?xml version="1.0" encoding="UTF-8"?>
<svg width="78px" height="162px" viewBox="0 0 78 162" version="1.1" xmlns="http://www.w3.org/2000/svg" xmlns:xlink="http://www.w3.org/1999/xlink">
    <!-- Generator: Sketch 41 (35326) - http://www.bohemiancoding.com/sketch -->
    <title>Page 1</title>
    <desc>Created with Sketch.</desc>
    <defs></defs>
    <g id="Page-1" stroke="none" stroke-width="1" fill="none" fill-rule="evenodd">
        <g transform="translate(1.000000, 1.000000)" id="Combined-Shape" stroke="#333333" fill="#FFFFFF">
            <path d="M-5.68434189e-14,-1.42108547e-14 L76,-1.42108547e-14 L76,160 L-5.68434189e-14,160 L-5.68434189e-14,-1.42108547e-14 Z M22.708,149.139 C22.708,152.925 25.783,156 29.569,156 C33.3625,156 36.433,152.925 36.433,149.139 L36.439,91.578 L39.4945,91.578 L39.475,149.139 C39.475,152.925 42.547,156 46.336,156 C50.125,156 53.1955,152.925 53.1955,149.139 L53.2255,49.902 L56.2345,49.902 L56.2345,86.472 C56.2345,93.8295 65.8315,93.8295 65.8105,86.472 L65.8105,49.122 C65.8105,40.995 61.0345,33.03 51.526,33.03 L24.094,33.018 C15.4285,33.018 10,40.083 10,48.8985 L10,86.4735 C10,93.777 19.6495,93.777 19.6495,86.4735 L19.6495,49.9035 L22.7215,49.9035 L22.708,149.139 Z M49.6361842,18.0809211 C49.6361842,24.7578947 44.2243421,30.1697368 37.5552632,30.1697368 C30.8782895,30.1697368 25.4664474,24.7578947 25.4664474,18.0809211 C25.4664474,11.4118421 30.8782895,6 37.5552632,6 C44.2243421,6 49.6361842,11.4118421 49.6361842,18.0809211 Z"></path>
        </g>
    </g>
</svg>