<?xml version="1.0" encoding="UTF-8"?>
<svg width="66px" height="160px" viewBox="0 0 66 160" version="1.1" xmlns="http://www.w3.org/2000/svg" xmlns:xlink="http://www.w3.org/1999/xlink">
    <!-- Generator: Sketch 41 (35326) - http://www.bohemiancoding.com/sketch -->
    <title>noun_2</title>
    <desc>Created with Sketch.</desc>
    <defs></defs>
    <g id="Page-1" stroke="none" stroke-width="1" fill="none" fill-rule="evenodd">
        <g id="noun_2" fill="#FFFFFF">
            <g id="Group">
                <g id="Oval-+-Shape-Mask">
                    <path d="M0,0 L66,0 L66,160 L0,160 L0,0 Z M17.708,148.139 C17.708,151.925 20.783,155 24.569,155 C28.3625,155 31.433,151.925 31.433,148.139 L31.439,90.578 L34.4945,90.578 L34.475,148.139 C34.475,151.925 37.547,155 41.336,155 C45.125,155 48.1955,151.925 48.1955,148.139 L48.2255,48.902 L51.2345,48.902 L51.2345,85.472 C51.2345,92.8295 60.8315,92.8295 60.8105,85.472 L60.8105,48.122 C60.8105,39.995 56.0345,32.03 46.526,32.03 L19.094,32.018 C10.4285,32.018 5,39.083 5,47.8985 L5,85.4735 C5,92.777 14.6495,92.777 14.6495,85.4735 L14.6495,48.9035 L17.7215,48.9035 L17.708,148.139 Z M32.177,29.477 C38.9361369,29.477 44.4155,23.9976369 44.4155,17.2385 C44.4155,10.4793631 38.9361369,5 32.177,5 C25.4178631,5 19.9385,10.4793631 19.9385,17.2385 C19.9385,23.9976369 25.4178631,29.477 32.177,29.477 Z" id="Combined-Shape"></path>
                </g>
            </g>
        </g>
    </g>
</svg>