<?xml version="1.0" encoding="UTF-8"?>
<svg width="58px" height="152px" viewBox="0 0 58 152" version="1.1" xmlns="http://www.w3.org/2000/svg" xmlns:xlink="http://www.w3.org/1999/xlink">
    <!-- Generator: Sketch 41 (35326) - http://www.bohemiancoding.com/sketch -->
    <title>Page 1</title>
    <desc>Created with Sketch.</desc>
    <defs></defs>
    <g id="Page-1" stroke="none" stroke-width="1" fill="none" fill-rule="evenodd">
        <g transform="translate(1.000000, 1.000000)" id="Combined-Shape" stroke="#DFCECE" fill="#FFFFFF">
            <path d="M12.708,143.139 C12.708,146.925 15.783,150 19.569,150 C23.3625,150 26.433,146.925 26.433,143.139 L26.439,85.578 L29.4945,85.578 L29.475,143.139 C29.475,146.925 32.547,150 36.336,150 C40.125,150 43.1955,146.925 43.1955,143.139 L43.2255,43.902 L46.2345,43.902 L46.2345,80.472 C46.2345,87.8295 55.8315,87.8295 55.8105,80.472 L55.8105,43.122 C55.8105,34.995 51.0345,27.03 41.526,27.03 L14.094,27.018 C5.4285,27.018 -5.68434189e-14,34.083 -5.68434189e-14,42.8985 L-5.68434189e-14,80.4735 C-5.68434189e-14,87.777 9.6495,87.777 9.6495,80.4735 L9.6495,43.9035 L12.7215,43.9035 L12.708,143.139 Z M39.6361842,12.0809211 C39.6361842,18.7578947 34.2243421,24.1697368 27.5552632,24.1697368 C20.8782895,24.1697368 15.4664474,18.7578947 15.4664474,12.0809211 C15.4664474,5.41184211 20.8782895,-2.84217094e-14 27.5552632,-2.84217094e-14 C34.2243421,-2.84217094e-14 39.6361842,5.41184211 39.6361842,12.0809211 Z"></path>
        </g>
    </g>
</svg>