<?xml version="1.0" encoding="UTF-8"?>
<svg width="78px" height="162px" viewBox="0 0 78 162" version="1.1" xmlns="http://www.w3.org/2000/svg" xmlns:xlink="http://www.w3.org/1999/xlink">
    <!-- Generator: Sketch 41 (35326) - http://www.bohemiancoding.com/sketch -->
    <title>Combined Shape</title>
    <desc>Created with Sketch.</desc>
    <defs></defs>
    <g id="Page-1" stroke="none" stroke-width="1" fill="none" fill-rule="evenodd">
        <path d="M1,1 L77,1 L77,161 L1,161 L1,1 Z M48.6940789,33.7138158 C57.1276316,33.7138158 60.55,40.6611842 61.8230263,44.4921053 L72.1848684,78.5539474 C74.2513158,85.8782895 64.9296053,88.9157895 62.7092105,81.7769737 L53.3875,50.5059211 L50.6736842,50.5059211 L66.8342105,106.124342 L51.9467105,106.124342 L51.9467105,149.490132 C51.9467105,156.883553 40.8210526,156.846053 40.8210526,149.490132 L40.8210526,105.846053 L36.2875,105.846053 L36.2953947,149.436842 C36.2953947,156.891447 25.1243421,156.891447 25.1243421,149.436842 L25.1243421,106.132237 L10.1914474,106.132237 L26.2276316,50.5059211 L23.7210526,50.5059211 L14.4013158,81.8835526 C12.1809211,88.7223684 2.78223684,85.9157895 4.93355263,78.5855263 L15.2717105,44.4921053 C16.3809211,40.6059211 19.7815789,33.7138158 28.2940789,33.7138158 L48.6940789,33.7138158 Z M38.177,30.477 C44.9361369,30.477 50.4155,24.9976369 50.4155,18.2385 C50.4155,11.4793631 44.9361369,6 38.177,6 C31.4178631,6 25.9385,11.4793631 25.9385,18.2385 C25.9385,24.9976369 31.4178631,30.477 38.177,30.477 Z" id="Combined-Shape" stroke="#333333" fill="#FFFFFF"></path>
    </g>
</svg>