<?xml version="1.0" encoding="UTF-8"?>
<svg width="70px" height="70px" viewBox="0 0 70 70" version="1.1" xmlns="http://www.w3.org/2000/svg" xmlns:xlink="http://www.w3.org/1999/xlink">
    <!-- Generator: Sketch 42 (36781) - http://www.bohemiancoding.com/sketch -->
    <title>Page 1</title>
    <desc>Created with Sketch.</desc>
    <defs></defs>
    <g id="Page-1" stroke="none" stroke-width="1" fill="none" fill-rule="evenodd">
        <path d="M35,70 C54.328,70 70,54.328 70,35 C70,15.672 54.328,0 35,0 C15.672,0 0,15.672 0,35 C0,54.328 15.672,70 35,70 Z M35,67.5 C52.949,67.5 67.5,52.949 67.5,35 C67.5,17.051 52.949,2.5 35,2.5 C17.051,2.5 2.5,17.051 2.5,35 C2.5,52.949 17.051,67.5 35,67.5 Z M25,52.5 C25.352,52.5 25.668,52.879 26.383,54.309 C27.543,56.629 28.27,57.5 30,57.5 C31.73,57.5 32.457,56.629 33.617,54.309 C34.332,52.879 34.648,52.5 35,52.5 C35.352,52.5 35.668,52.879 36.383,54.309 C37.543,56.629 38.27,57.5 40,57.5 C41.73,57.5 42.457,56.629 43.617,54.309 C44.332,52.879 44.648,52.5 45,52.5 C45.352,52.5 45.668,52.879 46.383,54.309 C46.691,54.93 47.441,55.18 48.059,54.871 C48.676,54.562 48.93,53.812 48.617,53.191 C47.457,50.871 46.73,50 45,50 C43.27,50 42.543,50.871 41.383,53.191 C40.668,54.621 40.352,55 40,55 C39.648,55 39.332,54.621 38.617,53.191 C37.457,50.871 36.73,50 35,50 C33.27,50 32.543,50.871 31.383,53.191 C30.668,54.621 30.352,55 30,55 C29.648,55 29.332,54.621 28.617,53.191 C27.457,50.871 26.73,50 25,50 C23.27,50 22.543,50.871 21.383,53.191 C21.07,53.816 21.32,54.57 21.938,54.879 C22.555,55.188 23.305,54.938 23.613,54.32 C24.332,52.879 24.648,52.5 25,52.5 Z M24.457,28.75 L16.691,32.633 C16.074,32.941 15.824,33.691 16.133,34.309 C16.441,34.926 17.191,35.176 17.809,34.867 L27.809,29.867 C28.73,29.406 28.73,28.094 27.809,27.633 L17.809,22.633 C17.191,22.324 16.441,22.574 16.133,23.191 C15.824,23.809 16.074,24.559 16.691,24.867 L24.457,28.75 Z M45.543,28.75 L53.309,32.633 C53.926,32.941 54.176,33.691 53.867,34.309 C53.559,34.926 52.809,35.176 52.191,34.867 L42.191,29.867 C41.27,29.406 41.27,28.094 42.191,27.633 L52.191,22.633 C52.809,22.324 53.559,22.574 53.867,23.191 C54.176,23.809 53.926,24.559 53.309,24.867 L45.543,28.75 Z" fill="#FFFFFF"></path>
    </g>
</svg>