<?xml version="1.0" encoding="UTF-8"?>
<svg width="55px" height="55px" viewBox="0 0 55 55" version="1.1" xmlns="http://www.w3.org/2000/svg" xmlns:xlink="http://www.w3.org/1999/xlink">
    <!-- Generator: Sketch 42 (36781) - http://www.bohemiancoding.com/sketch -->
    <title>Page 1</title>
    <desc>Created with Sketch.</desc>
    <defs></defs>
    <g id="Page-1" stroke="none" stroke-width="1" fill="none" fill-rule="evenodd">
        <g fill="#FFFFFF">
            <polygon id="Fill-1" points="13.266 35.379 41.739 35.379 41.739 34.203 13.266 34.203"></polygon>
            <path d="M27.5,54.309 C12.715,54.309 0.691,42.281 0.691,27.5 C0.691,12.719 12.719,0.691 27.5,0.691 C42.281,0.691 54.309,12.719 54.309,27.5 C54.309,42.281 42.281,54.309 27.5,54.309 Z M27.5,1.867 C13.367,1.867 1.867,13.367 1.867,27.5 C1.867,41.633 13.367,53.129 27.5,53.129 C41.633,53.129 53.133,41.633 53.133,27.5 C53.133,13.367 41.633,1.867 27.5,1.867 Z" id="Fill-2"></path>
            <path d="M19.934,37.953 C19.914,35.695 21.41,34.395 21.473,34.34 L22.234,35.234 L21.852,34.785 L22.234,35.23 C22.188,35.27 21.094,36.246 21.105,37.941 L19.934,37.953 Z" id="Fill-3"></path>
            <path d="M20.859,43.336 C20.539,43.336 20.207,43.297 19.867,43.223 C18.391,42.887 17.324,41.895 16.859,40.434 C16.242,38.48 16.812,36 18.254,34.398 L19.129,35.184 C17.973,36.469 17.488,38.527 17.98,40.074 C18.215,40.816 18.777,41.766 20.129,42.074 C21.738,42.445 22.988,41.609 23.465,39.855 C23.758,38.77 23.719,37.977 23.68,37.211 C23.641,36.41 23.605,35.648 23.977,34.773 L25.059,35.234 C24.793,35.863 24.82,36.434 24.855,37.152 C24.895,37.93 24.941,38.898 24.598,40.164 C24.059,42.168 22.637,43.336 20.859,43.336 Z" id="Fill-4"></path>
            <polygon id="Fill-5" points="13.699 16.277 21.332 23.914 20.5 24.746 12.867 17.109"></polygon>
            <polygon id="Fill-6" points="20.664 16.117 21.496 16.949 13.543 24.902 12.711 24.07"></polygon>
            <polygon id="Fill-7" points="34.68 16.277 42.312 23.914 41.48 24.746 33.848 17.109"></polygon>
            <polygon id="Fill-8" points="41.641 16.117 42.473 16.949 34.52 24.902 33.688 24.07"></polygon>
        </g>
    </g>
</svg>